<svg xmlns="http://www.w3.org/2000/svg" xmlns:xlink="http://www.w3.org/1999/xlink" width="31" height="31" viewBox="0 0 31 31"><defs><path id="8hrya" d="M1170 1197.96a12.01 12.01 0 1 0 0 24.02 12.01 12.01 0 0 0 0-24.02z"/><path id="8hryb" d="M1183.48 1209.97a13.98 13.98 0 1 1-27.97 0 13.98 13.98 0 0 1 27.97 0zm-11.76 0c0-.26 3.79-3.78 3.79-3.78l-2.23-2.23s-3.55 3.78-3.78 3.78c-.23 0-3.79-3.78-3.79-3.78l-2.22 2.23s3.78 3.47 3.78 3.78c0 .31-3.78 3.79-3.78 3.79l2.22 2.22s3.53-3.78 3.79-3.78c.26 0 3.78 3.78 3.78 3.78l2.23-2.22s-3.79-3.53-3.79-3.79z"/></defs><g><g transform="translate(-1154 -1194)"><use fill="#fff" xlink:href="#8hrya"/></g><g transform="translate(-1154 -1194)"><use fill="#c51e14" xlink:href="#8hryb"/></g></g></svg>