<svg xmlns="http://www.w3.org/2000/svg" xmlns:xlink="http://www.w3.org/1999/xlink" width="104" height="119" viewBox="0 0 104 119"><defs><path id="taxsa" d="M1424.46 1601.68l-10.74 2.51v5.89a2 2 0 0 1-2.01 2h-31.61l-29.3 6.87a2.01 2.01 0 0 1-2.41-1.5l-1.27-5.37h-11.07a2 2 0 0 1-2.01-2v-53.42l-8.01-33.94a2 2 0 0 1 1.5-2.4l6.5-1.53v-6.03c0-1.1.9-2 2.02-2h32.25l32.88-7.71a2 2 0 0 1 2.41 1.49l1.47 6.22h6.65a2 2 0 0 1 2 2v34.67l12.24 51.84a2 2 0 0 1-1.5 2.4zm-18.46-86.92l3.7 15.66v-15.66zm-67.95 3.09l13.18-3.1h-13.18zm8.13 90.23l-8.13-34.41v34.4zm63.52-2.94l-12.53 2.94h12.53zm11.88-6.9l-21.44-90.84-69.74 16.35 21.44 90.84zm-56.37-40.73a2 2 0 0 1-1.24.89l-16.05 3.76a2 2 0 0 1-2.41-1.49l-1.89-7.98a9.77 9.77 0 0 1 2.1-8.62 10.21 10.21 0 0 1 1.85-19.26 10.26 10.26 0 0 1 12.33 7.6 10.12 10.12 0 0 1-2.05 8.82 9.74 9.74 0 0 1 5.73 6.78l1.88 7.98a2 2 0 0 1-.25 1.52zm-13.87-16.7a6.2 6.2 0 0 0 4.65-7.48 6.24 6.24 0 0 0-12.14 2.85 6.24 6.24 0 0 0 7.5 4.62zm9.75 14.15l-1.42-6.04a5.76 5.76 0 0 0-5.66-4.47c-.45 0-.9.05-1.34.15l-.8.2a5.8 5.8 0 0 0-4.34 6.97l1.42 6.04zm22.9 44.52l-24.48 5.74a2 2 0 0 1-2.42-1.49 2 2 0 0 1 1.5-2.4l24.48-5.75a2 2 0 1 1 .92 3.9zm24.48-14.94l-51.02 11.97a2 2 0 0 1-2.42-1.5 2 2 0 0 1 1.5-2.4l51.02-11.96a2 2 0 1 1 .92 3.9zm-2.06-8.71l-51.02 11.96a2 2 0 0 1-2.41-1.49 2 2 0 0 1 1.5-2.4l51.01-11.97a2 2 0 1 1 .92 3.9zm-2.05-8.72l-51.02 11.97a2 2 0 0 1-2.41-1.49 2 2 0 0 1 1.49-2.41l51.02-11.96a2 2 0 1 1 .92 3.9zm-2.06-8.71l-51.02 11.96a2 2 0 0 1-2.42-1.49 2 2 0 0 1 1.5-2.4l51.02-11.97a2 2 0 1 1 .92 3.9zm-3.18-13.47l-26.95 6.32a2 2 0 0 1-2.41-1.49 2 2 0 0 1 1.5-2.4l26.94-6.32a2 2 0 1 1 .92 3.9zm-2.06-8.71l-26.95 6.32a2.01 2.01 0 0 1-2.41-1.5 2 2 0 0 1 1.5-2.4l26.94-6.32a2 2 0 1 1 .92 3.9zm-17.8-9.2l-12.14 2.84a2 2 0 0 1-2.41-1.49 2 2 0 0 1 1.5-2.4l12.13-2.85a2 2 0 1 1 .92 3.9z"/></defs><g><g transform="translate(-1324 -1501)"><use fill="#fff" xlink:href="#taxsa"/></g></g></svg>