<svg xmlns="http://www.w3.org/2000/svg" xmlns:xlink="http://www.w3.org/1999/xlink" width="119" height="123" viewBox="0 0 119 123"><defs><path id="oto8a" d="M513.92 1030h18.04c1.04 0 1.88.84 1.88 1.88v11.45l50.79 32.77h21.5c1.03 0 1.87.84 1.87 1.87v24.1a2.13 2.13 0 0 1-.02.2v.05l-6.02 38.08a1.88 1.88 0 0 1-1.85 1.58h-16.04a1.88 1.88 0 0 1-1.88-1.88v-14.15h-4.13a1.88 1.88 0 0 1-1.88-1.88v-10.02c0-1.04.84-1.88 1.88-1.88h4.13v-6.6l-48.35 32.75v9.8c0 1.04-.84 1.88-1.88 1.88h-18.04a1.88 1.88 0 0 1-1.88-1.88v-116.24c0-1.04.84-1.88 1.88-1.88zm72.03 108.23h12.55l5.42-34.33h-17.97zm0-38.08h18.3v-20.3h-18.3zm-6.01 15.78v6.26h2.25v-6.26zm-46.1 17.85l48.35-32.75V1079l-48.35-31.2zm-18.04 12.46h14.28V1033.76H515.8zm74.29-62.13h8.01a1.88 1.88 0 1 1 0 3.76h-8.01a1.88 1.88 0 1 1 0-3.76zm-96.21 2h8.02a1.88 1.88 0 1 1 0 3.76h-8.02a1.88 1.88 0 1 1 0-3.75zm4.01-20.1c.52-.9 1.67-1.2 2.57-.69l6.94 4.01a1.88 1.88 0 1 1-1.88 3.26l-6.94-4.01a1.88 1.88 0 0 1-.69-2.57zm.69 41.4l6.94-4a1.88 1.88 0 1 1 1.88 3.25l-6.94 4a1.87 1.87 0 0 1-2.57-.68c-.52-.9-.21-2.05.69-2.57zm21.36-69.4c1.03 0 1.87.85 1.87 1.89v24.05a1.88 1.88 0 1 1-3.75 0v-24.06c0-1.03.84-1.87 1.88-1.87zm0 32.07c1.03 0 1.87.84 1.87 1.88v10.02a1.88 1.88 0 1 1-3.75 0v-10.02c0-1.04.84-1.88 1.88-1.88z"/></defs><g><g transform="translate(-490 -1028)"><use fill="#fff" xlink:href="#oto8a"/></g></g></svg>