<svg xmlns="http://www.w3.org/2000/svg" xmlns:xlink="http://www.w3.org/1999/xlink" width="112" height="107" viewBox="0 0 112 107"><defs><path id="g4sta" d="M583.1 1998.6c0 1.14-.92 2.07-2.05 2.07h-15.98a2.06 2.06 0 0 1-2.05-2.07c0-3.28 1.56-6.2 3.97-8.04a10.13 10.13 0 0 1 6.07-18.17 10.13 10.13 0 1 1 6.07 18.16 10.13 10.13 0 0 1 3.97 8.05zm-4.46-2.06a5.95 5.95 0 0 0-5.58-3.92 5.95 5.95 0 0 0-5.58 3.92zm.36-14.03c0-3.3-2.67-5.99-5.94-5.99a5.97 5.97 0 0 0-5.94 5.99c0 3.3 2.66 5.98 5.94 5.98a5.97 5.97 0 0 0 5.94-5.98zm19-34.45v67.07c0 4.34-3.5 7.87-7.81 7.87h-15.25v24.94c0 1.14-.91 2.06-2.04 2.06h-81.85a2.06 2.06 0 0 1-2.05-2.06v-32.81c0-4.34 3.5-7.87 7.81-7.87h15.25v-59.2c0-1.14.91-2.06 2.04-2.06h81.85c1.13 0 2.05.92 2.05 2.06zm-94.32 63.33c.6 1.11.95 2.39.95 3.74a3.73 3.73 0 0 0 3.71 3.74 3.73 3.73 0 0 0 3.72-3.74v-3.74zm67.17 34.48V2023h-62.51a7.85 7.85 0 0 1-7.81-7.87 3.73 3.73 0 0 0-3.72-3.74 3.73 3.73 0 0 0-3.71 3.74v30.74zm23.05-30.74v-65h-77.75v65c0 1.35-.34 2.63-.94 3.74h74.98a3.73 3.73 0 0 0 3.71-3.74zm-6.85-57.12c0 1.14-.92 2.07-2.05 2.07h-58.8a2.06 2.06 0 0 1-2.04-2.07c0-1.14.92-2.06 2.05-2.06H585c1.13 0 2.05.92 2.05 2.06zm-34.9 9.8c0 1.14-.93 2.06-2.06 2.06h-23.88a2.06 2.06 0 0 1-2.05-2.06c0-1.14.92-2.07 2.05-2.07h23.88c1.13 0 2.05.93 2.05 2.07zm0 15c0 1.14-.93 2.06-2.06 2.06h-23.88a2.06 2.06 0 0 1-2.05-2.06c0-1.14.92-2.07 2.05-2.07h23.88c1.13 0 2.05.93 2.05 2.07zm0 15c0 1.14-.93 2.06-2.06 2.06h-23.88a2.06 2.06 0 0 1-2.05-2.06c0-1.14.92-2.07 2.05-2.07h23.88c1.13 0 2.05.93 2.05 2.07zm0 7.5c0 1.14-.93 2.06-2.06 2.06h-23.88a2.06 2.06 0 0 1-2.05-2.06c0-1.14.92-2.07 2.05-2.07h23.88c1.13 0 2.05.93 2.05 2.07zm0 7.5c0 1.14-.93 2.06-2.06 2.06h-23.88a2.06 2.06 0 0 1-2.05-2.06c0-1.14.92-2.07 2.05-2.07h23.88c1.13 0 2.05.93 2.05 2.07zm0-22.5c0 1.14-.93 2.06-2.06 2.06h-23.88a2.06 2.06 0 0 1-2.05-2.06c0-1.14.92-2.07 2.05-2.07h23.88c1.13 0 2.05.93 2.05 2.07zm0-15c0 1.14-.93 2.06-2.06 2.06h-23.88a2.06 2.06 0 0 1-2.05-2.06c0-1.14.92-2.07 2.05-2.07h23.88c1.13 0 2.05.93 2.05 2.07zm34.9-7.5c0 1.14-.92 2.06-2.05 2.06h-23.88a2.06 2.06 0 0 1-2.05-2.06c0-1.14.91-2.07 2.05-2.07H585c1.13 0 2.05.93 2.05 2.07zm0 37.5c0 1.14-.92 2.06-2.05 2.06h-23.88a2.06 2.06 0 0 1-2.05-2.06c0-1.14.91-2.07 2.05-2.07H585c1.13 0 2.05.93 2.05 2.07zm0 7.5c0 1.14-.92 2.06-2.05 2.06h-23.88a2.06 2.06 0 0 1-2.05-2.06c0-1.14.91-2.07 2.05-2.07H585c1.13 0 2.05.93 2.05 2.07zm-58.54 16.6c0 1.13-.92 2.06-2.05 2.06h-23.88a2.06 2.06 0 0 1-2.05-2.07c0-1.14.92-2.06 2.05-2.06h23.88c1.13 0 2.05.92 2.05 2.06zm0 7.5c0 1.13-.92 2.06-2.05 2.06h-23.88a2.06 2.06 0 0 1-2.05-2.07c0-1.14.92-2.06 2.05-2.06h23.88c1.13 0 2.05.92 2.05 2.06zm34.9-7.5c0 1.13-.91 2.06-2.04 2.06h-23.89a2.06 2.06 0 0 1-2.04-2.07c0-1.14.91-2.06 2.04-2.06h23.89c1.13 0 2.05.92 2.05 2.06zm0 7.5c0 1.13-.91 2.06-2.04 2.06h-23.89a2.06 2.06 0 0 1-2.04-2.07c0-1.14.91-2.06 2.04-2.06h23.89c1.13 0 2.05.92 2.05 2.06z"/></defs><g><g transform="translate(-487 -1944)"><use fill="#fff" xlink:href="#g4sta"/></g></g></svg>