<svg xmlns="http://www.w3.org/2000/svg" xmlns:xlink="http://www.w3.org/1999/xlink" width="128" height="101" viewBox="0 0 128 101"><defs><path id="teada" d="M606 2832.96v94.08c0 1.08-.88 1.96-1.97 1.96H496.7a16.75 16.75 0 0 1-10.63-3.79 16.69 16.69 0 0 1-4.76-6.34 16.6 16.6 0 0 1-1.12-3.94 16.43 16.43 0 0 1-.17-3.18v-.01-.1l-.02-.28v-63.77c0-9.15 7.5-16.59 16.7-16.59h107.33c1.09 0 1.97.88 1.97 1.96zm-122.05 68.77a16.75 16.75 0 0 1 12.75-5.92c5.08 0 9.68 2.3 12.76 5.92v-54.14c0-6.98-5.72-12.67-12.76-12.67a12.73 12.73 0 0 0-12.75 12.67zm23.33 17.76a12.56 12.56 0 0 0 1.92-4.53 12.67 12.67 0 0 0-12.5-15.23 12.76 12.76 0 0 0-12.72 11.77l-.02.4-.01.5a12.95 12.95 0 0 0 .14 1.94 12.7 12.7 0 0 0 2.03 5.15 12.83 12.83 0 0 0 3.45 3.43 12.75 12.75 0 0 0 7.13 2.16c2.56 0 5.03-.75 7.14-2.16a12.83 12.83 0 0 0 2.71-2.45c.26-.32.5-.64.73-.98zm94.77-84.57h-94.58a16.52 16.52 0 0 1 5.94 12.68v63.76c0 .1-.01.19-.03.28l.01.1a16.76 16.76 0 0 1-.18 3.19l-.14.82a16.54 16.54 0 0 1-2.51 5.94 16.8 16.8 0 0 1-3.07 3.4h94.56zM505 2912.4a8.27 8.27 0 0 1-8.29 8.24 8.27 8.27 0 0 1-8.28-8.24 8.27 8.27 0 0 1 8.28-8.23c4.57 0 8.29 3.7 8.29 8.23zm-3.95 0a4.33 4.33 0 0 0-8.68 0 4.33 4.33 0 0 0 8.68 0zm3.95-49.13v24.05c0 1.08-.88 1.96-1.97 1.96a1.97 1.97 0 0 1-1.98-1.96v-24.05c0-1.08.89-1.96 1.98-1.96 1.09 0 1.97.88 1.97 1.96zm36.25 41.45a1.95 1.95 0 0 1-1.4 3.34c-.5 0-1-.19-1.4-.57l-7.53-7.49-7.53 7.49a1.97 1.97 0 0 1-2.79 0c-.77-.77-.77-2 0-2.77l7.54-7.49-7.54-7.48c-.77-.77-.77-2 0-2.77a1.98 1.98 0 0 1 2.8 0l7.52 7.48 7.54-7.48a1.98 1.98 0 0 1 2.79 0c.77.76.77 2 0 2.77l-7.54 7.48zm4.2-44.95a1.95 1.95 0 0 1-1.39 3.34c-.5 0-1-.19-1.4-.57l-7.53-7.49-7.53 7.49a1.97 1.97 0 0 1-2.79 0c-.77-.77-.77-2 0-2.77l7.53-7.49-7.53-7.48c-.77-.77-.77-2 0-2.77a1.98 1.98 0 0 1 2.79 0l7.53 7.48 7.54-7.48a1.98 1.98 0 0 1 2.79 0c.77.76.77 2 0 2.77l-7.54 7.48zm50.48 55.4a1.95 1.95 0 0 1-1.4 3.35c-.5 0-1-.2-1.39-.58l-7.53-7.48-7.53 7.48a1.97 1.97 0 0 1-2.8 0c-.77-.76-.77-2 0-2.77l7.54-7.48-7.53-7.49c-.78-.76-.78-2 0-2.77a1.98 1.98 0 0 1 2.79 0l7.53 7.48 7.53-7.48a1.98 1.98 0 0 1 2.8 0c.76.76.76 2 0 2.77l-7.54 7.49zm-19.96-29.6a1.97 1.97 0 0 1-2.79 0l-3.2-3.18c-2.25 20.3-19.62 36.16-40.65 36.16a1.97 1.97 0 0 1-1.97-1.96c0-1.09.88-1.96 1.97-1.96a36.92 36.92 0 0 0 36.75-32.83l-4.84 4.81a1.97 1.97 0 0 1-2.79 0c-.77-.76-.77-2 0-2.77l7.9-7.84a1.98 1.98 0 0 1 2.78 0l.53.52 6.31 6.28c.77.76.77 2 0 2.77zm6.9-29.09a13 13 0 0 1-13.03 12.94 13 13 0 0 1-13.02-12.94 13 13 0 0 1 13.02-12.94 13 13 0 0 1 13.02 12.94zm-3.95 0a9.06 9.06 0 0 0-9.08-9.02c-5 0-9.07 4.05-9.07 9.02a9.06 9.06 0 0 0 9.07 9.02c5 0 9.08-4.05 9.08-9.02z"/></defs><g><g transform="translate(-479 -2829)"><use fill="#fff" xlink:href="#teada"/></g></g></svg>