<svg xmlns="http://www.w3.org/2000/svg" xmlns:xlink="http://www.w3.org/1999/xlink" width="121" height="116" viewBox="0 0 121 116"><defs><path id="zbnga" d="M1405.35 3302.52a13.6 13.6 0 0 1-19.15.04 13.44 13.44 0 0 1 .04-19.05 13.6 13.6 0 0 1 19.15-.04 13.44 13.44 0 0 1-.04 19.05zm-2.79-2.77a9.52 9.52 0 0 0 .03-13.5 9.64 9.64 0 0 0-13.57.03 9.52 9.52 0 0 0-.03 13.5 9.64 9.64 0 0 0 13.57-.03zm-35.96 36.88c-3.58 3.57-15.82 5.44-18.24 5.78a1.95 1.95 0 0 1-2.22-2.2c.35-2.42 2.23-14.6 5.8-18.16a10.43 10.43 0 0 1 14.7-.03 10.3 10.3 0 0 1-.04 14.61zm-2.78-2.76a6.4 6.4 0 0 0 .02-9.07 6.47 6.47 0 0 0-9.1.02c-1.66 1.65-3.33 8.05-4.26 13.28 5.25-.93 11.69-2.59 13.34-4.23zm39.34 19.37c-.75.33-1.62.17-2.2-.4l-14.1-14.03-37.1-36.91-14.1-14.03a1.95 1.95 0 0 1-.4-2.18c.34-.75 1.1-1.2 1.91-1.17l25.89 1.38 26.2-26.07.05-.04a2.3 2.3 0 0 1 .24-.19l.07-.05a2.04 2.04 0 0 1 .44-.2l.1-.03a2.95 2.95 0 0 1 .2-.04l.06-.01 42.4-5.27a1.97 1.97 0 0 1 2.19 2.18l-5.3 42.18v.06a1.82 1.82 0 0 1-.4.9l-.05.06-.07.09-.04.04-26.2 26.07 1.38 25.75c.04.82-.42 1.57-1.17 1.9zm-43.85-63.6l-17.21-.92 9.06 9.02zm35.6-26.98l31.4 31.24 4.47-35.7zm3.23 62.16l-34.32-34.14-9.87 9.82 34.32 34.15zm26.83-26.69l-34.32-34.14-24.04 23.91 34.32 34.14zm-24.86 48.3l-.92-17.12-8.14 8.1zm-.6-53.68l-7.44.02a1.96 1.96 0 0 1-1.96-1.96c0-1.08.88-1.96 1.97-1.97l7.44-.01c1.09 0 1.97.87 1.97 1.96 0 1.08-.9 1.96-1.98 1.96zm-1.5 5.92l-4.46.01a1.96 1.96 0 1 1 0-3.92l4.47-.01a1.96 1.96 0 1 1-.01 3.92zm33.28 41.53l-25.34 25.2c-.77.77-2.02.77-2.78 0-.77-.76-.77-2 0-2.77l25.34-25.2a1.98 1.98 0 0 1 2.79 0c.77.76.76 2 0 2.77zm-2.94-14.8l-8.94 8.9c-.78.77-2.02.77-2.8 0-.76-.76-.76-2 .01-2.77l8.95-8.9a1.98 1.98 0 0 1 2.78 0c.77.77.77 2 0 2.78zm-77.2-61.97l-29.81 29.65c-.78.77-2.02.77-2.8 0-.76-.76-.76-2 .01-2.77l29.81-29.65a1.98 1.98 0 0 1 2.79 0c.77.76.77 2 0 2.77zm22.31-4.49l-13.41 13.35c-.77.76-2.02.77-2.79 0-.77-.76-.77-2 0-2.77l13.42-13.35a1.98 1.98 0 0 1 2.79 0c.77.76.76 2 0 2.77z"/></defs><g><g transform="translate(-1316 -3252)"><use fill="#fff" xlink:href="#zbnga"/></g></g></svg>