<svg xmlns="http://www.w3.org/2000/svg" xmlns:xlink="http://www.w3.org/1999/xlink" width="116" height="114" viewBox="0 0 116 114"><defs><path id="4ieca" d="M1437 2371.77v107.46c0 .98-.8 1.77-1.77 1.77h-109.46c-.98 0-1.77-.8-1.77-1.77v-107.46c0-.98.8-1.77 1.77-1.77h109.46c.98 0 1.77.8 1.77 1.77zm-3.54 105.7v-103.94h-105.92v103.93zm-2.12-75.54a6.5 6.5 0 0 1-3.78 5.88v62c0 .97-.79 1.76-1.77 1.76h-90.58c-.98 0-1.77-.79-1.77-1.76v-16.4a6.5 6.5 0 0 1 0-12.46v-59.76c0-.97.79-1.76 1.77-1.76h90.58c.98 0 1.77.79 1.77 1.76v14.86a6.5 6.5 0 0 1 3.78 5.88zm-25.48-1.77h12.75a6.5 6.5 0 0 1 5.41-4.65v-12.55h-18.16zm0 3.54v14.62c.4.11.78.26 1.14.45l12.33-13.44a6.52 6.52 0 0 1-.72-1.63zm-23.6-20.74v17.2h20.06v-17.2zm0 39.83h15.59a6.5 6.5 0 0 1 4.47-4.47v-14.62h-20.05zm0 18.15a6.4 6.4 0 0 1 1.52.65l14.58-14c-.21-.4-.38-.82-.51-1.27h-15.58zm-23.58-40.78h20.05v-17.2h-20.05zm0 3.54v14.62a6.5 6.5 0 0 1 4.47 4.47h15.58v-19.09zm18.54 37.89c.48-.28.98-.5 1.51-.64v-14.63h-15.58c-.13.45-.3.87-.51 1.28zm-17.03-11.44c-.48.28-.98.5-1.51.64v14.62h15.58c.12-.44.3-.86.51-1.27zm-23.22-29.99h18.17v-17.2h-18.17zm0 22.63h13.7a6.5 6.5 0 0 1 4.47-4.47v-14.62h-18.17zm0 18.15c.62.18 1.2.44 1.73.78l12.69-13.78a6.5 6.5 0 0 1-.72-1.62h-13.7zm-1.76 9.19a2.95 2.95 0 0 0 2.27-4.83 2.95 2.95 0 1 0-2.27 4.83zm19.93-1.18h-13.7a6.5 6.5 0 0 1-4.47 4.47v14.62h18.17zm0-3.54v-14.62c-.4-.11-.78-.26-1.15-.45l-12.94 14.04c.16.34.3.68.4 1.03zm1.77-17.9c.8 0 1.56-.33 2.12-.92.54-.55.83-1.27.83-2.03a2.95 2.95 0 1 0-2.95 2.94zm21.82 25.9a6.5 6.5 0 0 1-4.47-4.46h-15.58v19.09h20.05zm1.77-3.28a2.95 2.95 0 0 0 2.13-4.99 2.92 2.92 0 0 0-4.26 0 2.95 2.95 0 0 0 2.13 4.98zm21.82 17.9v-19.08h-15.58a6.51 6.51 0 0 1-4.47 4.47v14.62zm0-37.24a6.35 6.35 0 0 1-1.5-.64l-14.6 13.99c.22.4.4.83.52 1.27h15.58zm1.77-3.29a2.95 2.95 0 0 0 1.99-5.11 2.94 2.94 0 1 0-1.99 5.11zm19.93 21.45h-18.16v19.09h18.16zm0-22.63h-13.69a6.5 6.5 0 0 1-4.47 4.47v14.62h18.16zm0-3.53v-14.43a6.46 6.46 0 0 1-2.08-.64l-12.33 13.44c.31.5.55 1.06.72 1.63zm3.78-20.86a2.95 2.95 0 0 0-5.9 0 2.91 2.91 0 0 0 .96 2.17 2.94 2.94 0 0 0 2.58.72 2.95 2.95 0 0 0 2.36-2.89z"/></defs><g><g transform="translate(-1322 -2368)"><use fill="#fff" xlink:href="#4ieca"/></g></g></svg>