<svg xmlns="http://www.w3.org/2000/svg" xmlns:xlink="http://www.w3.org/1999/xlink" width="63" height="63" viewBox="0 0 63 63"><defs><path id="u1h0a" d="M423.74 3704.37a6.32 6.32 0 1 1 12.64.01 6.32 6.32 0 0 1-12.64-.01zm2.1 0c0 1.24.55 2.35 1.41 3.12a2.1 2.1 0 0 0 1.75-2.07h2.1c0 1.24-.55 2.35-1.4 3.12.11.01.23.04.35.04a4.21 4.21 0 1 0-4.2-4.21zM391.11 3717a6.32 6.32 0 1 1 12.64.01 6.32 6.32 0 0 1-12.64-.01zm2.1 0a4.21 4.21 0 0 0 4.21 4.21c.12 0 .24-.03.36-.04a4.19 4.19 0 0 1-1.41-3.12h2.1c0 1.04.76 1.9 1.75 2.07a4.19 4.19 0 0 0-2.8-7.33 4.21 4.21 0 0 0-4.21 4.21zm55.79-16.84c0 .45-.29.85-.72 1l-5.6 1.86v2.4h3.16c.58 0 1.05.47 1.05 1.05v6.32c0 2.9-2.36 5.26-5.26 5.26h-5.26v4.21h4.2c2.91 0 5.27 2.36 5.27 5.27v8.42h2.1v2.1h-14.73v5.27c0 .58-.47 1.05-1.05 1.05h-11.58v5.26c0 .58-.47 1.05-1.05 1.05h-14.74v5.27c0 .58-.47 1.05-1.05 1.05H389v-2.1h4.21v-12.64h-3.16c-.58 0-1.05-.47-1.05-1.05v-11.58c0-2.9 2.36-5.26 5.26-5.26h8.42c.12 0 .23.02.34.05l5.93 1.98 6.65-2.85 2.98-5.97c.07-.13.16-.24.27-.34l6.32-5.26c.19-.16.43-.24.67-.24h14.74v-13.69a1.06 1.06 0 0 1 1.38-1l6.32 2.11c.43.14.72.54.72 1zm-18.45 13.68l.56 1.38.55-1.38zm-24.7 34.74v-6.32h-5.27v12.63h2.1v-5.26c0-.58.47-1.05 1.06-1.05zm5.26 0v-8.42a3.16 3.16 0 0 0-3.16-3.16h-5.27c-.58 0-1.05-.47-1.05-1.05v-5.27a1.05 1.05 0 0 1 1.2-1.04l7.04 1 7.07-3.52-.32-.48-.64-.96-6.57 2.81c-.23.1-.5.12-.74.03l-6.16-2.05h-2.98v7.37h-2.1v-7.37h-3.17a3.16 3.16 0 0 0-3.15 3.16v10.53h2.1v-9.48h2.1v24.21h3.16v-13.68c0-.58.47-1.05 1.06-1.05h7.36c.59 0 1.06.47 1.06 1.05v7.37zm14.73-6.32v-22.1l-2.38 1.79-4.11 6.16-.03.03c-.1.13-.22.25-.38.33l-8.42 4.2c-.19.1-.4.14-.62.1l-6.16-.87v3h4.2c2.9 0 5.27 2.36 5.27 5.26v8.42h5.26v-5.26c0-.59.47-1.06 1.06-1.06zm12.63-12.63h-5.26v6.32h5.26zm6.32-22.1h-2.1v5.26c0 .58-.48 1.05-1.06 1.05h-7.7l-1.85 4.6a1.05 1.05 0 0 1-1.95 0l-1.84-4.6h-2.07l-5.85 4.88-2.79 5.57.9 1.34 3.33-5a1 1 0 0 1 .24-.26l4.21-3.16a1.05 1.05 0 0 1 1.69.84v24.21h3.16v-13.68c0-.58.47-1.05 1.05-1.05h7.37c.58 0 1.05.47 1.05 1.05v7.37h3.16v-8.42a3.16 3.16 0 0 0-3.16-3.16h-5.26c-.59 0-1.06-.47-1.06-1.05V3717c0-.58.47-1.05 1.06-1.05h6.31a3.16 3.16 0 0 0 3.16-3.16zm-.17-7.37l-1.94-.65v1.3zm-30.36 2.1h2.1v2.1h-2.1zm-4.2 0h2.1v2.1h-2.1zm-4.22 0h2.1v2.1h-2.1z"/></defs><g><g transform="translate(-387 -3695)"><use fill="#fff" xlink:href="#u1h0a"/></g></g></svg>