<svg xmlns="http://www.w3.org/2000/svg" xmlns:xlink="http://www.w3.org/1999/xlink" width="32" height="42" viewBox="0 0 32 42"><defs><path id="llrka" d="M1403.68 101.88a2.23 2.23 0 1 1-4.48 0c0-1.22 1.01-2.22 2.25-2.22 1.23 0 2.23 1 2.23 2.22zm-1.28 0a.96.96 0 0 0-.95-.95.96.96 0 0 0-.96.95c0 .53.43.95.96.95.52 0 .95-.42.95-.95zm-.63-12.99c0-1.4 1.14-2.53 2.55-2.53a2.55 2.55 0 0 1 2.56 2.53c0 1.4-1.15 2.54-2.56 2.54a2.55 2.55 0 0 1-2.55-2.54zm1.27 0c0 .7.58 1.27 1.28 1.27.7 0 1.28-.57 1.28-1.27 0-.7-.57-1.27-1.28-1.27-.7 0-1.28.57-1.28 1.27zm-14.52-13.5a.63.63 0 0 1 0-.89l1.28-1.26a.64.64 0 0 1 .9 0c.26.24.26.64 0 .9l-1.27 1.26a.64.64 0 0 1-.9 0zm22.86 12.92l-.36.36a5.34 5.34 0 0 1-.94 7.17v1.92h1.28V106h-16.63v-8.24h1.28v-1.13l-6.88-6.8a.95.95 0 0 1-.14-.15 2.84 2.84 0 0 1-1.3-2.37c0-1.06.6-1.98 1.47-2.47l-3.14-3.11-2.41-2.39a2.08 2.08 0 0 1 0-2.95l7.87-7.8a2.12 2.12 0 0 1 2.98 0l2.4 2.39.52.5a2.89 2.89 0 0 1 5.02 1.89c0 .11 0 .23-.02.34a2.87 2.87 0 0 1 3.2 3.17 2.87 2.87 0 0 1 3.2 3.17 2.87 2.87 0 0 1 3.22 2.83c0 .82-.37 1.59-.98 2.12l.36.36a2.06 2.06 0 0 1 0 2.95zm-2.26-7.02c-.5 0-.95.22-1.25.59l2.25 2.23a1.58 1.58 0 0 0-1-2.82zm-3.2-3.17c-.49 0-.94.22-1.24.6l2.24 2.22a1.58 1.58 0 0 0-1-2.82zm-3.2-3.17c-.49 0-.94.22-1.24.6l2.24 2.22a1.58 1.58 0 0 0-1-2.82zm-4.44-2.58l2.25 2.23a1.58 1.58 0 0 0-1-2.82c-.5 0-.95.23-1.25.6zm-12.26 7.57l9.04-8.96-1.5-1.5a.83.83 0 0 0-.28-.17c-.04-.02-.09-.02-.14-.03a.8.8 0 0 0-.34 0c-.05.01-.1.01-.14.03-.1.04-.2.1-.27.18l-7.88 7.8a.82.82 0 0 0 0 1.16zm.9.9l3.65 3.62h6.4a2.87 2.87 0 0 1 2.88 2.85c0 1.57-1.3 2.85-2.88 2.85h-.64l5.1 5.05c.32.32.85.32 1.17 0l7.6-7.52.28-.28a.81.81 0 0 0 0-1.16l-.6-.6-3.2-3.16-.37-.37-2.83-2.8-.37-.36-2.83-2.81-.36-.36-3.2-3.17-.76-.75zm2.05 6.47c0 .87.72 1.58 1.6 1.58h6.4c.88 0 1.6-.7 1.6-1.58a1.6 1.6 0 0 0-1.6-1.59h-6.4l-.08.01-.26.03c-.72.16-1.26.8-1.26 1.55zm16 17.42v-2.17c0-1.94-1.6-3.53-3.57-3.53h-5.4v5.7zm5.1-5.7h-5.4a4.77 4.77 0 0 1 1.57 3.53v2.17h3.84zm-6.56-2.92a2.11 2.11 0 0 1-2.98 0l-6-5.95h-3.26l5.68 5.6.11.1.23.18v1.72h11.51v-2.54l.25-.19a4.07 4.07 0 0 0 1.05-5.45z"/></defs><g><g transform="translate(-1381 -66)"><use fill="#fff" xlink:href="#llrka"/></g></g></svg>