<svg xmlns="http://www.w3.org/2000/svg" xmlns:xlink="http://www.w3.org/1999/xlink" width="40" height="46" viewBox="0 0 40 46"><defs><path id="sj41a" d="M426 3629.14c0 .17 0 .34-.03.53l-2 12.36a5.35 5.35 0 0 1-2.3 3.95 6.97 6.97 0 0 1-3.84 1.02h-15.1c-1.33 0-2.56-.5-3.5-1.31-.3.25-.7.4-1.13.4h-6.34c-.96 0-1.76-.77-1.76-1.72v-16.95c0-.95.79-1.73 1.76-1.73h6.34c.62 0 1.16.3 1.47.78a10.8 10.8 0 0 0 2.8-1.4c1.8-1.27 2.71-2.85 2.71-4.73v-6.05c0-.5.34-.94.83-1.1.12-.05 3.17-.95 5.42.66 1.42 1.02 2.14 2.75 2.14 5.12v5.1h7.33a5.3 5.3 0 0 1 5.2 5.07zm-28.5-1.12h-5.15v15.78h5.15zm26.14 1.21a2.96 2.96 0 0 0-2.84-2.84h-8.5c-.66 0-1.19-.53-1.19-1.16v-6.27c0-1.59-.4-2.69-1.18-3.25-.75-.54-1.78-.55-2.49-.47v5.1c0 2.65-1.3 4.95-3.76 6.66a12.86 12.86 0 0 1-3.63 1.76l-.18.04v13.43l.05.18a2.85 2.85 0 0 0 2.8 2.28h15.11c3.44 0 3.72-2.22 3.8-2.95.02-.01.02-.03.02-.04l1.98-12.38.01-.09zm-15.63-20.57v-3.5c0-.64.53-1.16 1.18-1.16.65 0 1.18.52 1.18 1.16v3.5c0 .64-.53 1.16-1.18 1.16-.65 0-1.18-.52-1.18-1.16zm9.4 8.18h3.7c.64 0 1.17.52 1.17 1.16 0 .64-.53 1.16-1.18 1.16h-3.68c-.65 0-1.18-.52-1.18-1.16 0-.64.53-1.16 1.18-1.16zM396.1 3618c0-.64.53-1.16 1.18-1.16h3.69c.65 0 1.18.52 1.18 1.16 0 .64-.53 1.16-1.18 1.16h-3.69c-.65 0-1.18-.52-1.18-1.16zm2.36-9.06a1.14 1.14 0 0 1 0-1.65 1.2 1.2 0 0 1 1.67 0c.46.46.46 1.2 0 1.65a1.21 1.21 0 0 1-1.67 0zm2.7 2.65a1.16 1.16 0 0 1 .84-1.98c.3 0 .61.13.83.34a1.16 1.16 0 0 1 0 1.64 1.2 1.2 0 0 1-1.67 0zm16.3-2.1a1.14 1.14 0 0 1 0-1.64 1.2 1.2 0 0 1 1.68 0c.46.45.46 1.18 0 1.64a1.21 1.21 0 0 1-1.67 0zm-2.69 2.64a1.16 1.16 0 0 1 0-1.64 1.2 1.2 0 0 1 1.67 0 1.16 1.16 0 0 1 0 1.64 1.2 1.2 0 0 1-1.67 0z"/></defs><g><g transform="translate(-388 -3602)"><use fill="#262626" xlink:href="#sj41a"/></g></g></svg>